<svg width="1056" height="176" viewBox="0 0 1056 176" fill="none" xmlns="http://www.w3.org/2000/svg">
<path d="M0.71875 0.219971H35.875V140.845C35.875 148.657 39.7812 152.564 47.5938 152.564H59.3125C67.125 152.564 71.0312 148.657 71.0312 140.845V82.2512H106.188V140.845C106.188 164.282 94.4688 176.001 71.0312 176.001H35.875C12.4375 176.001 0.71875 164.282 0.71875 140.845V0.219971ZM129.625 0.219971H235.094V23.6575H188.219C172.594 23.6575 164.781 31.47 164.781 47.095V140.845C164.781 148.657 168.688 152.564 176.5 152.564H188.219C196.031 152.564 199.938 148.657 199.938 140.845V82.2512H235.094V140.845C235.094 164.282 223.375 176.001 199.938 176.001H164.781C141.344 176.001 129.625 164.282 129.625 140.845V58.8137C129.625 39.7512 137.438 28.0325 153.062 23.6575H129.625V0.219971ZM258.531 0.219971H328.844V176.001H293.688V23.6575H258.531V0.219971ZM446.031 0.219971V23.6575H387.438V47.095H422.594C446.031 47.095 457.75 58.8137 457.75 82.2512V176.001H422.594V82.2512C422.594 74.4387 418.688 70.5325 410.875 70.5325H387.438V176.001H352.281V0.219971H446.031ZM481.188 0.219971H586.656V152.564H621.812V176.001H551.5V23.6575H516.344V82.2512H481.188V0.219971ZM645.25 0.219971H715.562V176.001H680.406V23.6575H645.25V0.219971ZM739 0.219971H844.469V58.8137H879.625C903.062 58.8137 914.781 70.5325 914.781 93.97V140.845C914.781 164.282 903.062 176.001 879.625 176.001H844.469C821.031 176.001 809.312 164.282 809.312 140.845V23.6575H774.156V82.2512H739V0.219971ZM844.469 82.2512V140.845C844.469 148.657 848.375 152.564 856.188 152.564H867.906C875.719 152.564 879.625 148.657 879.625 140.845V93.97C879.625 86.1575 875.719 82.2512 867.906 82.2512H844.469ZM938.219 35.3762C938.219 11.9387 949.938 0.219971 973.375 0.219971H1008.53C1031.97 0.219971 1043.69 11.9387 1043.69 35.3762V140.845C1043.69 144.595 1042.16 148.501 1039.12 152.564H1055.41V176.001H973.375C949.938 176.001 938.219 164.282 938.219 140.845V35.3762ZM973.375 140.845C973.375 148.657 977.281 152.564 985.094 152.564H996.812C1004.62 152.564 1008.53 148.657 1008.53 140.845V35.3762C1008.53 27.5637 1004.62 23.6575 996.812 23.6575H985.094C977.281 23.6575 973.375 27.5637 973.375 35.3762V140.845Z" fill="white"/>
</svg>
